<svg xmlns="http://www.w3.org/2000/svg" width="1440" height="810" viewBox="0 0 1440 810">
  <rect width="1440" height="810" fill="#eef0f3"/>
  <rect x="60" y="40" width="1320" height="730" fill="#ffffff" stroke="#d3d8df" stroke-width="4"/>
  <g fill="#c9d0d9"><rect x="60" y="270" width="1320" height="18"/><rect x="60" y="520" width="1320" height="18"/><rect x="60" y="752" width="1320" height="18"/></g>
  <g fill="#1f6fd1"><rect x="60" y="288" width="1320" height="22"/><rect x="60" y="538" width="1320" height="22"/></g>
  <g font-family="Poppins, Arial, sans-serif" font-weight="700" font-size="14" fill="#fff"><text x="90" y="305">₩2,900</text><text x="470" y="305">₩3,200</text><text x="850" y="305">₩2,700</text><text x="1210" y="305">₩3,500</text><text x="90" y="555">₩2,900</text><text x="700" y="555">₩3,100</text></g>
  <g id="a"><rect x="100" y="110" width="62" height="160" rx="14" fill="#2f4a3a"/><rect x="100" y="160" width="62" height="54" fill="#e2a33b"/></g>
  <use href="#a" x="80"/><use href="#a" x="160"/><use href="#a" x="240"/>
  <g id="b"><rect x="480" y="96" width="66" height="174" rx="8" fill="#d8352a"/><rect x="480" y="150" width="66" height="60" fill="#fff"/><circle cx="513" cy="180" r="18" fill="#d8352a"/></g>
  <use href="#b" x="84"/><use href="#b" x="168"/><use href="#b" x="252"/>
  <g id="c"><rect x="860" y="120" width="70" height="150" rx="20" fill="#1c2230"/><rect x="860" y="170" width="70" height="46" fill="#9ad0f5"/></g>
  <use href="#c" x="86"/><use href="#c" x="172"/>
  <g id="d"><rect x="1210" y="104" width="60" height="166" rx="12" fill="#f2f2f2" stroke="#1c2230" stroke-width="4"/><rect x="1210" y="150" width="60" height="70" fill="#1c2230"/></g>
  <use href="#d" x="84"/>
  <g id="e"><rect x="100" y="350" width="120" height="170" rx="10" fill="#d8352a"/><rect x="100" y="400" width="120" height="50" fill="#fff"/></g>
  <use href="#e" x="140"/><use href="#e" x="280"/>
  <g id="f"><rect x="700" y="360" width="110" height="160" rx="10" fill="#2f4a3a"/><rect x="700" y="400" width="110" height="60" fill="#e2a33b"/></g>
  <use href="#f" x="130"/><use href="#f" x="260"/><use href="#f" x="390"/>
  <g id="g"><rect x="100" y="600" width="90" height="152" rx="8" fill="#1c2230"/><rect x="100" y="640" width="90" height="40" fill="#9ad0f5"/></g>
  <use href="#g" x="110"/><use href="#g" x="220"/><use href="#g" x="330"/><use href="#g" x="440"/>
  <g id="h"><rect x="720" y="610" width="96" height="142" rx="8" fill="#f2f2f2" stroke="#1c2230" stroke-width="4"/><rect x="720" y="650" width="96" height="46" fill="#1c2230"/></g>
  <use href="#h" x="120"/><use href="#h" x="240"/><use href="#h" x="360"/><use href="#h" x="480"/>
</svg>
