<svg xmlns="http://www.w3.org/2000/svg" width="800" height="1200" viewBox="0 0 800 1200">
  <defs>
    <linearGradient id="sky" x1="0" y1="0" x2="0" y2="1"><stop offset="0" stop-color="#1f2a5a"/><stop offset=".55" stop-color="#e2667a"/><stop offset="1" stop-color="#ffb36b"/></linearGradient>
    <linearGradient id="beam" x1="0" y1="0" x2="0" y2="1"><stop offset="0" stop-color="#fff7d6" stop-opacity=".8"/><stop offset="1" stop-color="#fff7d6" stop-opacity="0"/></linearGradient>
  </defs>
  <rect width="800" height="1200" fill="url(#sky)"/>
  <path d="M430 260 L130 1200 L760 1200 Z" fill="url(#beam)" opacity=".55"/>
  <rect x="380" y="330" width="40" height="870" fill="#23263a"/>
  <g stroke="#23263a" stroke-width="10"><path d="M380 420 L420 520 M420 420 L380 520 M380 620 L420 720 M420 620 L380 720 M380 820 L420 920 M420 820 L380 920"/></g>
  <rect x="270" y="150" width="260" height="190" rx="10" fill="#23263a"/>
  <g fill="#fff6c8"><circle cx="315" cy="195" r="22"/><circle cx="375" cy="195" r="22"/><circle cx="435" cy="195" r="22"/><circle cx="495" cy="195" r="22"/><circle cx="315" cy="255" r="22"/><circle cx="375" cy="255" r="22"/><circle cx="435" cy="255" r="22"/><circle cx="495" cy="255" r="22"/><circle cx="315" cy="310" r="18"/><circle cx="375" cy="310" r="18"/><circle cx="435" cy="310" r="18"/><circle cx="495" cy="310" r="18"/></g>
  <path d="M0 1060 C200 1010 600 1010 800 1060 L800 1200 L0 1200 Z" fill="#23263a"/>
</svg>
